<svg xmlns="http://www.w3.org/2000/svg" viewBox="0 0 168.56 13.55"><defs><style>.cls-1{fill:#211915;}</style></defs><g id="Capa_2" data-name="Capa 2"><g id="Capa_1-2" data-name="Capa 1"><path class="cls-1" d="M168.5 8.86a3.22 3.22 0 0 0-1.86-2.36 8.31 8.31 0 0 0-3-.85c-.75-.08-1.51-.14-2.26-.2h-.5l-2-.16-2.36-.2a4.45 4.45 0 0 1-1.65-.38c-.36-.17-.5-.35-.5-.61s0-.35.46-.53a5.4 5.4 0 0 1 1.1-.4 15.46 15.46 0 0 1 3.54-.37c.85 0 1.79.05 2.95.16a17.09 17.09 0 0 1 3.94.93l.93.33.77.28V2.13a.54.54 0 0 0-.34-.56A17.63 17.63 0 0 0 160.93 0h-2.35a17.14 17.14 0 0 0-3.85.46 7.05 7.05 0 0 0-2.73 1.3 3 3 0 0 0-1.12 2.18 3.15 3.15 0 0 0 .91 2.38 5.1 5.1 0 0 0 2.17 1.2 13.73 13.73 0 0 0 2.95.48c1.56.12 3.23.25 4.88.4.78.07 1.49.16 2.16.27a1.67 1.67 0 0 1 .94.48.43.43 0 0 1 .13.32.39.39 0 0 1-.13.27 2.14 2.14 0 0 1-.51.33 7.62 7.62 0 0 1-2.35.57 20.34 20.34 0 0 1-3.56.09h-.23c-.76-.05-1.56-.1-2.32-.2a17.46 17.46 0 0 1-4.78-1.44L151 9l-.42-.16v1.63c0 1.13.05 1.21 1.09 1.7a15.16 15.16 0 0 0 4.91 1.2 24.72 24.72 0 0 0 2.93.17h1a19.88 19.88 0 0 0 4.07-.47 7.51 7.51 0 0 0 2.85-1.25 2.89 2.89 0 0 0 1.14-3M142.6 9.19a5 5 0 0 0 1.82-3.43 4.66 4.66 0 0 0-1.24-3.46 6.38 6.38 0 0 0-3.54-2.06h-13.47v13.13h3.26V10.8h6.94a.45.45 0 0 1 .28.11l1.82 1.49 1.17 1h4.91l-3.84-3a6.92 6.92 0 0 0 1.89-1.13m-2.53-2.17a3.46 3.46 0 0 1-2.21.77h-8.42V3.06h8.37a3.55 3.55 0 0 1 2.34.84 2 2 0 0 1-.08 3.2M107.04 10.51V8.26h8.9V5.17h-8.91V3.06h13.08V.24h-16.14v13.13h16.14v-2.86h-13.07zM99 .47l.14-.09V.24h-5.52l-8 4.45-1.93 1.08V.24H80.4v13.13h3.3v-1.09-2.63-.06l3.46-2 7.06 5.77h4.68l-8.74-7.5zM41.5 13l-.67-1.17c-.52-.92-1-1.84-1.57-2.76-.78-1.35-1.56-2.69-2.33-4L34.16.27h-3.37a1.75 1.75 0 0 0-.2.35l-.09.14L23.37 13l-.09.17-.11.21h3.91l.05-.07.75-1.31.71-1.23h7.67c.46.8.94 1.66 1.42 2.55l.05.07h3.9l-.1-.2a.91.91 0 0 1-.03-.19M30.3 7.76L32.48 4l2.16 3.74zM14.17.24V5.13H3.32V.24H0v13.13h3.33V8.52h10.85v4.85h3.32V.24zM58.24.24h2.16c1.24 2.17 2.49 4.32 3.74 6.48L66 9.91l.48-.85Q69 4.7 71.51.32l.07-.08h3.82l-.09.19c0 .06-.06.1-.09.15l-1.69 2.93c-1.37 2.38-2.75 4.75-4.11 7.14-.37.64-.71 1.33-1 2l-.32.63-.06.1h-3.92c-.41-.72-.82-1.43-1.24-2.14l-1.72-3-1.32-2.3-.51-.94c-.26.44-.52.89-.78 1.32-.76 1.32-1.55 2.67-2.3 4-.41.71-.78 1.46-1.13 2.19-.12.24-.25.49-.37.74v.06h-3.91C48.87 10 46.91 6.6 45 3.23L43.41.55a.54.54 0 0 1-.07-.13l-.08-.18h3.8a.35.35 0 0 1 0 .08l5 8.68.53.91 3-5.24c.58-1 1.16-2 1.73-3z"/></g></g></svg>