
<svg width="122px" height="25px" viewBox="71 13 122 25" version="1.1" xmlns="http://www.w3.org/2000/svg" xmlns:xlink="http://www.w3.org/1999/xlink">
    <!-- Generator: Sketch 40.3 (33839) - http://www.bohemiancoding.com/sketch -->
    <desc>Created with Sketch.</desc>
    <defs>
        <polygon id="path-1" points="10.8553925 22.5660377 21.5475283 22.5660377 21.5475283 0.302037736 0.163256604 0.302037736 0.163256604 22.5660377 10.8553925 22.5660377"></polygon>
    </defs>
    <g id="LOGO" stroke="none" stroke-width="1" fill="none" fill-rule="evenodd" transform="translate(71.000000, 13.500000)">
        <path d="M7.42769811,7.22321509 C6.83360377,7.93578113 6.1800566,8.53030943 5.4670566,8.53030943 C4.87209434,8.53030943 4.21854717,8.05512075 4.21854717,6.80704528 L4.21854717,3.47942264 C4.21854717,1.93451698 3.44609434,1.5778 2.139,1.5778 C0.356283019,1.5778 0,2.23178113 0,3.53887547 L0,19.3446491 C0,21.127366 0.415735849,21.6029887 2.139,21.6029887 C3.56543396,21.6029887 4.21854717,21.127366 4.21854717,19.5230075 L4.21854717,17.3840075 C4.21854717,15.6611774 6.23907547,13.1060075 7.72539623,13.1060075 C8.73479245,13.1060075 9.44735849,14.2347434 10.8147736,16.4331962 L13.2510377,20.3549132 C13.9644717,21.4250642 14.7364906,21.6029887 16.1026038,21.6029887 C18.3014906,21.6029887 18.0641132,20.771083 17.3511132,19.4635547 L12.1817547,10.8476679 C12.0624151,10.6697434 11.6471132,10.0752151 11.6471132,9.30276226 C11.6471132,8.70823396 11.8844906,8.05512075 12.7749811,7.10430943 L16.0435849,3.7168 C16.9349434,2.70696981 16.9943962,2.41013962 16.9943962,2.23178113 C16.9943962,1.63725283 16.1026038,1.5778 15.0337547,1.5778 C12.4191321,1.5778 12.2412075,1.87506415 10.7553208,3.53887547 L7.42769811,7.22321509 Z" id="Fill-1" fill="#E30B12"></path>
        <path d="M86.8588925,6.87283396 C86.2296472,7.62706038 85.5383453,8.25630566 84.7832509,8.25630566 C84.1544396,8.25630566 83.4622698,7.7533434 83.4622698,6.43236226 L83.4622698,2.91032453 C83.4622698,1.27515472 82.6451189,0.897607547 81.2607792,0.897607547 C79.3743453,0.897607547 78.9967981,1.58977736 78.9967981,2.97324906 L78.9967981,19.7024943 C78.9967981,21.5897962 79.4364019,22.0931925 81.2607792,22.0931925 C82.7709679,22.0931925 83.4622698,21.5897962 83.4622698,19.8912679 L83.4622698,17.6272868 C83.4622698,15.8037774 85.6012698,13.0993245 87.1735151,13.0993245 C88.2423642,13.0993245 88.9970245,14.2940226 90.4434208,16.6213623 L93.0224585,20.7722113 C93.7766849,21.9044189 94.5947038,22.0931925 96.0411,22.0931925 C98.3680057,22.0931925 98.1171755,21.2122491 97.3620811,19.8283434 L91.8906849,10.7090604 C91.7648358,10.5207208 91.3239302,9.89147547 91.3239302,9.07389057 C91.3239302,8.44507925 91.5756283,7.7533434 92.5190623,6.74655094 L95.9781755,3.16158868 C96.9211755,2.09273962 96.9841,1.77811698 96.9841,1.58977736 C96.9841,0.960532075 96.0411,0.897607547 94.9093264,0.897607547 C92.1419491,0.897607547 91.9536094,1.21223019 90.3804962,2.97324906 L86.8588925,6.87283396 Z" id="Fill-3" fill="#E30B12"></path>
        <g id="Group-7" transform="translate(99.377358, 0.186951)">
            <mask id="mask-2" fill="white">
                <use xlink:href="#path-1"></use>
            </mask>
            <g id="Clip-6"></g>
            <path d="M4.56623774,11.3711132 C4.56623774,6.46560377 7.26982264,3.887 10.8552189,3.887 C14.6914453,3.887 17.1442,7.15777358 17.1442,11.4344717 C17.1442,16.088283 14.6285208,19.044 10.6035208,19.044 C7.08191698,19.044 4.56623774,15.8999434 4.56623774,11.3711132 M21.5476151,11.4344717 C21.5476151,5.64801887 17.7743132,0.302037736 10.7298038,0.302037736 C5.69757736,0.302037736 0.163256604,3.82407547 0.163256604,11.5598868 C0.163256604,17.3463396 3.93742642,22.5660377 10.8552189,22.5660377 C17.2700491,22.5660377 21.5476151,17.9122264 21.5476151,11.4344717" id="Fill-5" fill="#E30B12" mask="url(#mask-2)"></path>
        </g>
        <path d="M57.7232302,11.5182264 C57.7232302,6.60620755 60.4315887,4.02369811 64.0213245,4.02369811 C67.8627585,4.02369811 70.3189849,7.29881132 70.3189849,11.5815849 C70.3189849,16.2419057 67.8002679,19.2019623 63.7691925,19.2019623 C60.2423811,19.2019623 57.7232302,16.0531321 57.7232302,11.5182264 M74.7280415,11.5815849 C74.7280415,5.78732075 70.9490981,0.433962264 63.8954755,0.433962264 C58.8571736,0.433962264 53.3141736,3.96077358 53.3141736,11.707434 C53.3141736,17.5012642 57.0935509,22.7287736 64.0213245,22.7287736 C70.4452679,22.7287736 74.7280415,18.0684528 74.7280415,11.5815849" id="Fill-8" fill="#E30B12"></path>
        <path d="M59.7845509,11.4614208 C59.7845509,11.8528547 59.9208151,12.1657415 60.1946453,12.4009491 C60.4880038,12.6352887 60.8204189,12.7524585 61.1914566,12.7524585 C61.5833245,12.7524585 61.8966453,12.6352887 62.1309849,12.4009491 C62.3848528,12.1657415 62.5120038,11.8528547 62.5120038,11.4614208 C62.5120038,11.0708547 62.3848528,10.7380057 62.1309849,10.4641755 C61.8966453,10.170817 61.5833245,10.0237038 61.1914566,10.0237038 C60.8204189,10.0237038 60.4880038,10.170817 60.1946453,10.4641755 C59.9208151,10.7380057 59.7845509,11.0708547 59.7845509,11.4614208" id="Fill-10" fill="#E30B12"></path>
        <path d="M65.4760528,11.3442509 C65.4760528,11.7356849 65.612317,12.0681 65.8861472,12.3414962 C66.1599774,12.6157604 66.4923925,12.7524585 66.8833925,12.7524585 C67.2748264,12.7524585 67.6076755,12.6157604 67.8815057,12.3414962 C68.1748642,12.0681 68.3224113,11.7356849 68.3224113,11.3442509 C68.3224113,10.952817 68.1748642,10.6399302 67.8815057,10.4051566 C67.6076755,10.1508547 67.2748264,10.0237038 66.8833925,10.0237038 C66.4923925,10.0237038 66.1599774,10.1508547 65.8861472,10.4051566 C65.612317,10.6399302 65.4760528,10.952817 65.4760528,11.3442509" id="Fill-12" fill="#E30B12"></path>
        <path d="M51.1417585,2.03727925 C50.8809472,1.73263774 50.4773623,1.57771321 49.9405509,1.57771321 C48.7458528,1.57771321 48.1565321,2.11235472 47.9083057,3.42292075 C47.9065698,3.4316 45.6894566,13.2699585 45.6894566,13.2699585 C45.5297585,14.1205245 45.4664,14.1049019 45.2732868,14.1049019 C45.0172491,14.1049019 44.9499849,14.0901472 44.7967962,13.3706377 C44.7976642,13.3732415 42.5467019,3.18250566 42.5467019,3.18250566 L42.5432302,3.16688302 C42.1912868,1.76692075 41.4743811,1.57771321 40.6689472,1.57771321 C39.6326453,1.57771321 39.0229283,1.7226566 38.6510226,3.59390189 L36.7737019,12.0856755 C36.4716642,13.6010717 36.542834,14.1049019 36.0650415,14.1049019 C35.8853811,14.1049019 35.8563057,14.1300717 35.6944377,13.2621472 C35.6944377,13.2686566 33.6179283,4.48439245 33.6179283,4.48439245 C33.2577396,2.33150566 32.989117,1.57771321 31.3964755,1.57771321 C30.8236453,1.57771321 30.3957585,1.73741132 30.1240981,2.05203396 C29.8120792,2.41526038 29.4232491,2.94903396 29.5690604,3.68373208 C29.5703623,3.68720377 32.8315887,19.3237321 32.8315887,19.3237321 C33.2481925,21.3520717 34.4359472,21.5130717 35.5438528,21.5130717 C36.967683,21.5130717 37.692834,21.0791094 37.9627585,19.7928453 C37.9627585,19.7937132 39.8114377,13.643166 39.8114377,13.643166 C39.8943245,13.2434868 40.1325698,12.7344491 40.5756453,12.7344491 C40.808683,12.7344491 41.1358906,12.711883 41.3411547,13.5923925 C41.3394189,13.5845811 43.142966,19.6170906 43.142966,19.6170906 C43.454117,21.0530717 44.1922868,21.5130717 45.7011736,21.5130717 C46.6988528,21.5130717 48.0107208,21.3755057 48.3661358,19.7368642 C48.3665698,19.7338264 51.6750981,3.92197736 51.6750981,3.92197736 C51.8595321,3.03192075 51.4798151,2.43348679 51.1417585,2.03727925" id="Fill-14" fill="#E30B12"></path>
        <path d="M24.8285434,1.41883962 L23.0367132,1.41883962 C21.9383547,1.41883962 21.4189019,2.22817925 21.4189019,3.84642453 L21.3611849,17.6021604 C21.3611849,20.2610472 21.3034679,21.8215755 23.3257321,21.8215755 L24.6553925,21.8215755 C26.2159208,21.8215755 26.5626566,20.8390849 26.5626566,18.8159528 L26.5626566,5.46466981 C26.5626566,2.92165094 26.5626566,1.41883962 24.8285434,1.41883962" id="Fill-16" fill="#E30B12"></path>
    </g>
</svg>