<?xml version="1.0" encoding="utf-8"?>
<!-- Generator: Adobe Illustrator 22.0.1, SVG Export Plug-In . SVG Version: 6.00 Build 0)  -->
<svg version="1.1" id="Capa_1" xmlns="http://www.w3.org/2000/svg" xmlns:xlink="http://www.w3.org/1999/xlink" x="0px" y="0px"
	 viewBox="0 0 130 20" style="enable-background:new 0 0 130 20;" xml:space="preserve">
<style type="text/css">
	.st0{fill:#191312;}
</style>
<g>
	<g>
		<g>
			<path class="st0" d="M115.8,4.8c-1.2,0-2.2-1-2.2-2.2c0-1.2,1-2.2,2.2-2.2s2.2,1,2.2,2.2C118,3.9,117,4.8,115.8,4.8"/>
			<path class="st0" d="M115.8,14.9c-1.2,0-2.2-1-2.2-2.2c0-1.2,1-2.2,2.2-2.2s2.2,1,2.2,2.2C118,13.9,117,14.9,115.8,14.9"/>
			<path class="st0" d="M13,19.6V0.7h3.6V2l0.6-0.5c0.8-0.6,1.8-1,2.9-1c4.3,0,6.6,3.6,6.6,7c0,3.4-2.3,7-6.6,7
				c-1.1,0-2.2-0.4-2.9-1l-0.6-0.5v6.5H13z M19.4,3.7c-1.1,0-2.1,0.5-2.7,1.4l-0.1,0.1v4.7l0.1,0.1c0.7,0.9,1.6,1.3,2.7,1.3
				c2.2,0,3.7-1.6,3.7-3.8C23.1,5.3,21.6,3.7,19.4,3.7"/>
			<path class="st0" d="M67.9,19.6V0.7h3.6V2l0.6-0.5c0.8-0.6,1.8-1,2.9-1c4.3,0,6.6,3.6,6.6,7c0,3.4-2.3,7-6.6,7
				c-1.1,0-2.2-0.4-2.9-1l-0.6-0.5v6.5H67.9z M74.3,3.7c-1.1,0-2.1,0.5-2.7,1.4l-0.1,0.1v4.7l0.1,0.1c0.7,0.9,1.6,1.3,2.7,1.3
				c2.2,0,3.7-1.6,3.7-3.8C77.9,5.3,76.4,3.7,74.3,3.7"/>
			<path class="st0" d="M35,14.6c-3.8,0-6.9-3.1-6.9-6.9c0-3.8,3.1-6.9,6.9-6.9c3.8,0,6.9,3.1,6.9,6.9C41.9,11.5,38.8,14.6,35,14.6
				 M35,4.1c-2,0-3.4,1.5-3.4,3.6c0,2.1,1.4,3.6,3.4,3.6c2,0,3.4-1.5,3.4-3.6C38.4,5.6,36.9,4.1,35,4.1"/>
			<path class="st0" d="M61.6,14.2V7.7c0-2.9-1.4-3.5-2.5-3.5c-1,0-2,0.5-2.6,1.3l-0.1,0.1l0,0.1c0.1,0.4,0.1,0.8,0.1,1.2v7.3h-3.4
				V7.7c0-2.9-1.4-3.5-2.5-3.5c-1,0-1.9,0.4-2.5,1.2l-0.1,0.1v8.7h-3.4V1.2h3.4v1.2L48.5,2c0.7-0.6,1.9-1,2.9-1
				c1.4,0,2.7,0.5,3.6,1.5l0.2,0.3l0.3-0.3C56,2.1,57.3,1,59.6,1C64.5,1,65,5.1,65,6.9v7.3H61.6z"/>
			<path class="st0" d="M96.4,7.2c0-0.4,0-0.7-0.1-1c-0.5-3.7-3.4-5.4-6.3-5.4c-4.1,0-6.9,2.8-6.9,6.9c0,4.3,3.5,6.9,6.8,6.9
				c2.4,0,4.5-1.1,5.9-2.9L93,9.8c-0.7,1.1-1.8,1.6-3.1,1.6c-1.5,0-3.2-0.9-3.4-2.9l0-0.2h10V7.2z M86.4,6.2l0.1-0.3
				c0.4-1.8,1.9-2.4,3.2-2.4c1.7,0,3,0.9,3.2,2.4l0,0.2H86.4z"/>
			<rect x="98.7" y="0.5" class="st0" width="3.4" height="14.4"/>
			<rect x="106.9" y="0.5" class="st0" width="3.4" height="14.4"/>
		</g>
	</g>
</g>
</svg>
